<svg width="1000" height="1000" viewBox="0 0 1000 1000" fill="none" xmlns="http://www.w3.org/2000/svg">
<path d="M500 1000C223.623 1000 0 776.045 0 500C0 223.623 223.955 0 500 0C776.377 0 1000 223.955 1000 500C1000.33 776.377 776.377 1000 500 1000Z" fill="#B5E2DC"/>
<mask id="mask0_410_695" style="mask-type:alpha" maskUnits="userSpaceOnUse" x="0" y="0" width="1000" height="1000">
<path d="M500 1000C223.623 1000 0 776.045 0 500C0 223.623 223.955 0 500 0C776.377 0 1000 223.955 1000 500C1000.33 776.377 776.377 1000 500 1000Z" fill="#F7C0B5"/>
</mask>
<g mask="url(#mask0_410_695)">
<path d="M780 921.024C777.667 922.69 775 924.357 772.667 926.024C770 927.69 767.667 929.357 765 930.69C762.667 932.024 760.667 933.357 758.333 934.69C758 935.024 757.667 935.024 757.333 935.357C749.667 940.024 741.667 944.357 733.667 948.357C731.333 949.69 728.667 951.024 726.333 952.024C726.333 952.024 726 952.357 725.667 952.357C723 953.69 720.333 955.024 717.667 956.357C712.333 959.024 706.667 961.357 701.333 963.69C698.667 965.024 695.667 966.024 693 967.024C690.333 968.024 687.333 969.357 684.667 970.357C682 971.357 679 972.69 676.333 973.69C676.333 973.69 676.333 973.69 676 973.69C673.333 974.69 670.333 975.69 667.667 976.69C661.667 978.69 655.333 980.69 649.333 982.69C647.333 983.357 645 984.024 643 984.69C636.667 986.69 630.333 988.357 624 989.69C621.667 990.357 619.333 990.69 616.667 991.357C610.667 992.69 604.333 994.024 598.333 995.357C597 995.69 596 995.69 594.667 996.024C592.667 996.357 590.333 996.69 588.333 997.024C585.333 997.357 582.667 998.024 579.667 998.357C578.333 998.69 577 998.69 575.667 999.024C574 999.357 572 999.69 570 999.69C564.667 1000.36 559 1001.02 553.667 1001.69C552 1002.02 550 1002.02 548.333 1002.36H548C545.667 1002.69 543.333 1002.69 541 1003.02C538.667 1003.36 536.333 1003.36 534 1003.36C532.667 1003.36 531 1003.69 529.667 1003.69C527 1003.69 524.667 1004.02 522.333 1004.02C519 1004.02 516 1004.36 512.667 1004.36C509.333 1004.36 506.333 1004.36 503 1004.36C500.667 1004.36 498.333 1004.36 496 1004.36C355.667 1002.36 229 942.69 139 848.024C139 848.024 139 847.69 138.667 847.69C149 827.357 187.334 790.69 227.333 760.357C278 722.024 349.667 698.357 349.667 698.357C349.667 698.357 396.667 690.69 571 727.024C704 755.024 760.667 868.69 780 921.024Z" fill="#F7D3B5"/>
<path d="M608 819.358C601 853.691 555.667 874.025 479.333 843.358C385.667 805.358 349.667 698.358 349.667 698.358C344.667 621.691 333 556.025 333 556.025C441.334 546.691 569.333 673.358 569.333 673.358L584 736.025C585.333 741.358 588 746.025 592 749.358C599 761.358 612.667 797.358 608 819.358Z" fill="#F7D3B5"/>
<path d="M592 749.691C528.333 746.358 481.333 737.025 431 646.691C473.667 684.358 524 698.691 577 705.358L584 736.025C585.333 741.691 588 746.358 592 749.691Z" fill="#EFBDA5"/>
<path d="M723.667 348.024C729.667 376.024 732.667 398.69 716.333 473.357C700 548.024 731.333 622.69 652.667 691.024C599.667 737.024 507 745.69 433 695.357C408 678.357 385 654.69 366.334 623.69C351.667 599.357 334.667 576.357 315.667 555.357C289.334 526.69 257.667 469.024 273.334 367.024C298.667 201.024 463 182.024 560 200.357C657 218.691 707.333 274.024 723.667 348.024Z" fill="#F7D3B5"/>
<path d="M404.667 478.357C404.667 478.357 394.333 428.357 345.667 434.357C303.667 439.691 289 540.357 384.333 568.357" fill="#F7D3B5"/>
<path d="M381.333 522.691C381.333 522.691 369.333 515.025 370.667 501.691C372.667 486.025 370.667 476.358 363.333 473.358C345 465.691 341.333 487.025 342 489.691" stroke="#423232" stroke-width="13.4786" stroke-miterlimit="10" stroke-linecap="round" stroke-linejoin="round"/>
<path d="M635.667 555.023C635.667 555.023 648.333 555.69 660.333 541.356C667 533.356 672.667 523.356 669 520.356C665.333 517.023 605 526.356 601 534.356C597 542.356 620.333 555.023 635.667 555.023Z" fill="#EFBDA5"/>
<path d="M645.667 443.023C645.667 443.023 646.333 474.69 666.667 510.023C675.667 525.69 662 551.356 632.333 555.69" stroke="#423232" stroke-width="13.4786" stroke-miterlimit="10" stroke-linecap="round" stroke-linejoin="round"/>
<path opacity="0.42" d="M465 572.023C483.962 572.023 499.333 559.338 499.333 543.69C499.333 528.042 483.962 515.356 465 515.356C446.038 515.356 430.667 528.042 430.667 543.69C430.667 559.338 446.038 572.023 465 572.023Z" fill="#ED938A"/>
<path opacity="0.42" d="M711 516.023C710 534.69 710.333 553.023 709 571.357C694.333 568.023 683.667 557.023 683.667 544.023C683.667 530.023 695.333 518.69 711 516.023Z" fill="#ED938A"/>
<path d="M813.68 858.928C766.346 797.928 693.013 772.594 652.68 757.594C649.346 740.928 643.013 722.594 633.013 704.928C617.68 714.261 600.013 721.261 581.68 724.928L584.346 735.928C585.68 741.261 592.346 765.928 582.013 797.594C573.346 824.261 538.347 836.261 479.013 809.261C363.347 756.928 350.013 697.928 350.013 697.928C348.013 665.928 344.68 635.928 341.68 611.594C305.68 619.594 264.013 635.928 241.347 670.261C213.347 712.261 203.013 754.928 205.68 788.928C157.013 819.928 81.68 866.928 57.0133 950.928C25.0133 1060.26 30.3466 1127.26 30.3466 1127.26H891.68C890.68 1127.59 878.013 941.928 813.68 858.928Z" fill="#6060D8"/>
<path d="M298.679 749.594C298.679 749.594 319.013 828.594 408.013 883.26" stroke="#423232" stroke-width="13.4786" stroke-miterlimit="10" stroke-linecap="round" stroke-linejoin="round"/>
<path d="M652.346 757.595C652.346 757.595 676.013 859.928 624.346 906.928" stroke="#423232" stroke-width="13.4786" stroke-miterlimit="10" stroke-linecap="round" stroke-linejoin="round"/>
<path d="M491.68 891.262C491.68 891.262 474.346 941.928 479.013 976.928" stroke="#423232" stroke-width="13.4786" stroke-miterlimit="10" stroke-linecap="round" stroke-linejoin="round"/>
<path d="M598.013 888.261C598.013 888.261 611.013 916.594 620.347 961.594" stroke="#423232" stroke-width="13.4786" stroke-miterlimit="10" stroke-linecap="round" stroke-linejoin="round"/>
<path d="M205.013 789.262C205.013 789.262 232.346 900.595 395.013 933.262" stroke="#423232" stroke-width="13.4786" stroke-miterlimit="10" stroke-linecap="round" stroke-linejoin="round"/>
<path d="M482.013 984.594L467.346 983.261C462.013 982.594 458.013 977.594 459.013 972.261L464.013 947.261C465.346 940.261 472.013 935.261 479.013 936.261C486.013 936.927 491.68 942.927 491.68 950.261L492.013 975.927C492.013 980.927 487.346 985.261 482.013 984.594Z" fill="white"/>
<path d="M635.013 969.262L621.013 974.262C615.68 976.262 610.013 972.928 609.013 967.595L603.013 942.928C601.346 935.928 605.013 928.928 612.013 926.262C618.68 923.928 626.346 926.928 629.346 933.262L640.346 956.262C642.68 961.262 640.346 967.262 635.013 969.262Z" fill="white"/>
<path d="M782.012 961.594C782.012 961.594 800.679 1066.26 793.346 1127.59" stroke="#544D4D" stroke-width="13.4786" stroke-miterlimit="10" stroke-linecap="round" stroke-linejoin="round"/>
<path d="M526.11 476.493C518.11 476.159 512.11 469.493 512.777 461.493L513.11 452.159C513.443 444.159 520.11 438.159 528.11 438.826C536.11 439.159 542.11 445.826 541.443 453.826L541.11 463.159C540.777 470.826 534.11 476.826 526.11 476.493Z" fill="#423232"/>
<path d="M666.443 481.492C659.11 481.159 653.443 474.825 653.776 467.492L654.11 458.825C654.443 451.492 660.776 445.825 668.11 446.159C675.443 446.492 681.11 452.825 680.776 460.159L680.443 468.825C680.11 476.159 673.776 481.825 666.443 481.492Z" fill="#423232"/>
<path d="M558.444 457.158C558.444 457.158 549.777 444.824 534.777 442.491C522.444 440.491 508.777 446.491 506.777 453.491" stroke="#423232" stroke-width="13.4786" stroke-miterlimit="10" stroke-linecap="round" stroke-linejoin="round"/>
<path d="M656.777 460.159C656.777 460.159 656.777 449.492 672.11 449.492C684.777 449.492 690.11 461.159 690.11 461.159" stroke="#423232" stroke-width="13.4786" stroke-miterlimit="10" stroke-linecap="round" stroke-linejoin="round"/>
<path d="M572.109 403.492C579.109 405.825 586.109 399.492 584.776 391.825C584.109 387.825 582.443 383.825 579.109 380.825C569.109 371.825 527.776 363.825 502.776 375.492C480.776 386.159 540.109 392.825 572.109 403.492Z" fill="#423232"/>
<path d="M671.775 408.825C666.109 410.825 660.109 404.825 661.109 397.825C661.442 394.158 662.775 390.492 665.442 387.825C673.442 379.825 700.775 373.492 718.109 385.825C733.109 396.158 697.775 399.158 671.775 408.825Z" fill="#423232"/>
<path d="M645.496 600.976C645.946 608.165 640.554 620.745 630.67 629.731C579.9 598.73 556.987 614.904 556.987 614.904C539.015 587.498 543.059 550.207 586.64 578.512C617.191 597.831 635.612 600.976 645.496 600.976Z" fill="#423232"/>
<path d="M630.67 629.731C619.887 639.166 603.713 645.007 581.698 636.021C571.364 631.978 563.277 623.891 556.987 614.905C556.987 614.905 579.901 598.731 630.67 629.731Z" fill="#FE9DAB"/>
<path d="M654.033 599.179C654.033 599.179 635.163 609.513 586.64 578.512C528.682 541.221 540.364 619.397 581.249 636.021C623.931 653.543 645.946 615.354 645.497 600.976" stroke="#423232" stroke-width="13.4786" stroke-miterlimit="10" stroke-linecap="round" stroke-linejoin="round"/>
<path d="M556.987 614.905C556.987 614.905 579.901 598.731 630.67 629.731" stroke="#423232" stroke-width="13.4786" stroke-miterlimit="10" stroke-linecap="round" stroke-linejoin="round"/>
<path d="M749.389 267.559C725.722 353.225 657.055 338.892 592.722 315.559C507.055 284.225 431.722 309.559 431.389 386.892C430.722 500.226 402.389 465.892 399.389 461.559C392.055 447.559 376.389 430.225 346.722 433.892C307.722 438.892 292.389 524.892 365.055 560.226C377.722 624.559 343.055 618.559 343.055 618.559C331.389 571.226 233.389 470.559 233.056 404.225C233.056 314.892 278.056 289.559 278.056 289.559C279.389 227.226 344.389 158.559 453.722 160.892C563.055 162.892 630.055 159.892 651.389 134.225C672.722 107.892 773.055 181.892 749.389 267.559Z" fill="#423232"/>
<path d="M752.056 370.559C748.722 392.226 739.389 408.893 726.389 421.226C731.389 384.893 728.722 367.559 724.389 347.226C715.056 305.559 695.056 269.559 661.722 242.893C678.389 241.559 695.389 245.226 710.722 254.893C710.722 254.559 765.722 276.893 752.056 370.559Z" fill="#423232"/>
<path d="M367.045 489.328C367.045 489.328 340.378 485.328 342.378 522.661C343.378 541.661 343.378 551.994 343.045 557.328C342.712 560.994 345.045 564.328 348.378 565.661C352.378 567.328 356.712 565.661 358.712 561.661C361.712 556.328 365.045 548.994 365.045 542.994C365.045 532.994 375.712 523.994 375.712 523.994C375.712 523.994 366.045 515.661 367.045 489.328Z" fill="white"/>
<path d="M447.712 1131.99C445.045 1128.99 340.379 949.994 356.045 882.661C366.712 836.327 352.712 782.994 340.379 735.994C335.379 716.66 330.712 698.66 328.045 682.66C323.379 654.994 326.712 628.661 338.045 604.327C350.379 576.994 348.379 553.327 348.379 552.994L355.045 552.327C355.045 553.327 357.045 578.327 344.045 606.994C333.379 629.994 330.379 655.327 334.712 681.661C337.379 697.327 342.045 715.327 347.045 734.661C359.712 782.327 373.712 836.661 362.712 884.661C348.045 948.661 452.378 1127.66 453.045 1128.33L447.712 1131.99Z" fill="white"/>
<path d="M343.379 541.994C343.712 549.328 343.379 554.328 343.379 557.328C343.046 560.994 345.379 564.328 348.712 565.661C352.712 567.328 357.046 565.661 359.046 561.661C362.046 556.328 365.379 548.994 365.379 542.994C365.379 542.661 365.379 541.994 365.379 541.661C358.379 544.328 350.379 546.328 343.379 541.994Z" fill="#E5E5E5"/>
<path d="M657.045 763.662C654.712 778.995 654.378 803.329 653.712 831.662C652.712 886.329 620.378 1099.33 604.712 1133L598.712 1130.33C613.712 1097.66 646.045 885.662 647.045 831.662C647.712 803.329 648.045 778.662 650.378 762.662C655.378 728.995 651.712 703.662 649.712 692.995C650.712 691.995 651.712 691.328 652.712 690.328C653.712 689.662 654.378 688.662 655.378 687.995C657.378 696.662 663.045 724.329 657.045 763.662Z" fill="white"/>
</g>
</svg>
