<svg width="4481" height="3074" viewBox="0 0 4481 3074" fill="none" xmlns="http://www.w3.org/2000/svg">
<path d="M3831 1950C3471.71 1950 3181 1658.86 3181 1300C3181 940.71 3472.14 650 3831 650C4190.29 650 4481 941.141 4481 1300C4481.43 1659.29 4190.29 1950 3831 1950Z" fill="#B5E2DC"/>
<mask id="mask0_411_1170" style="mask-type:alpha" maskUnits="userSpaceOnUse" x="3181" y="650" width="1300" height="1300">
<path d="M3831 1950C3471.71 1950 3181 1658.86 3181 1300C3181 940.71 3472.14 650 3831 650C4190.29 650 4481 941.141 4481 1300C4481.43 1659.29 4190.29 1950 3831 1950Z" fill="#F7C0B5"/>
</mask>
<g mask="url(#mask0_411_1170)">
<path d="M4195 1847.33C4191.97 1849.5 4188.5 1851.67 4185.47 1853.83C4182 1856 4178.97 1858.17 4175.5 1859.9C4172.47 1861.63 4169.87 1863.37 4166.83 1865.1C4166.4 1865.53 4165.97 1865.53 4165.53 1865.97C4155.57 1872.03 4145.17 1877.67 4134.77 1882.87C4131.73 1884.6 4128.27 1886.33 4125.23 1887.63C4125.23 1887.63 4124.8 1888.07 4124.37 1888.07C4120.9 1889.8 4117.43 1891.53 4113.97 1893.27C4107.03 1896.73 4099.67 1899.77 4092.73 1902.8C4089.27 1904.53 4085.37 1905.83 4081.9 1907.13C4078.43 1908.43 4074.53 1910.17 4071.07 1911.47C4067.6 1912.77 4063.7 1914.5 4060.23 1915.8C4060.23 1915.8 4060.23 1915.8 4059.8 1915.8C4056.33 1917.1 4052.43 1918.4 4048.97 1919.7C4041.17 1922.3 4032.93 1924.9 4025.13 1927.5C4022.53 1928.37 4019.5 1929.23 4016.9 1930.1C4008.67 1932.7 4000.43 1934.87 3992.2 1936.6C3989.17 1937.47 3986.13 1937.9 3982.67 1938.77C3974.87 1940.5 3966.63 1942.23 3958.83 1943.97C3957.1 1944.4 3955.8 1944.4 3954.07 1944.83C3951.47 1945.27 3948.43 1945.7 3945.83 1946.13C3941.93 1946.57 3938.47 1947.43 3934.57 1947.87C3932.83 1948.3 3931.1 1948.3 3929.37 1948.73C3927.2 1949.17 3924.6 1949.6 3922 1949.6C3915.07 1950.47 3907.7 1951.33 3900.77 1952.2C3898.6 1952.63 3896 1952.63 3893.83 1953.07H3893.4C3890.37 1953.5 3887.33 1953.5 3884.3 1953.93C3881.27 1954.37 3878.23 1954.37 3875.2 1954.37C3873.47 1954.37 3871.3 1954.8 3869.57 1954.8C3866.1 1954.8 3863.07 1955.23 3860.03 1955.23C3855.7 1955.23 3851.8 1955.67 3847.47 1955.67C3843.13 1955.67 3839.23 1955.67 3834.9 1955.67C3831.87 1955.67 3828.83 1955.67 3825.8 1955.67C3643.37 1953.07 3478.7 1875.5 3361.7 1752.43C3361.7 1752.43 3361.7 1752 3361.27 1752C3374.7 1725.57 3424.53 1677.9 3476.53 1638.47C3542.4 1588.63 3635.57 1557.87 3635.57 1557.87C3635.57 1557.87 3696.67 1547.9 3923.3 1595.13C4096.2 1631.53 4169.87 1779.3 4195 1847.33Z" fill="#F7D3B5"/>
<path d="M3971.4 1715.17C3962.3 1759.8 3903.37 1786.23 3804.13 1746.37C3682.37 1696.97 3635.57 1557.87 3635.57 1557.87C3629.07 1458.2 3613.9 1372.83 3613.9 1372.83C3754.73 1360.7 3921.13 1525.37 3921.13 1525.37L3940.2 1606.83C3941.93 1613.77 3945.4 1619.83 3950.6 1624.17C3959.7 1639.77 3977.47 1686.57 3971.4 1715.17Z" fill="#F7D3B5"/>
<path d="M3950.6 1624.6C3867.83 1620.26 3806.73 1608.13 3741.3 1490.7C3796.77 1539.66 3862.2 1558.3 3931.1 1566.96L3940.2 1606.83C3941.93 1614.2 3945.4 1620.26 3950.6 1624.6Z" fill="#EFBDA5"/>
<path d="M4121.77 1102.43C4129.57 1138.83 4133.47 1168.3 4112.23 1265.37C4091 1362.43 4131.73 1459.5 4029.47 1548.33C3960.57 1608.13 3840.1 1619.4 3743.9 1553.97C3711.4 1531.87 3681.5 1501.1 3657.23 1460.8C3638.17 1429.17 3616.07 1399.27 3591.37 1371.97C3557.13 1334.7 3515.97 1259.73 3536.33 1127.13C3569.27 911.332 3782.9 886.632 3909 910.465C4035.1 934.299 4100.53 1006.23 4121.77 1102.43Z" fill="#F7D3B5"/>
<path d="M3707.07 1271.87C3707.07 1271.87 3693.63 1206.87 3630.37 1214.67C3575.77 1221.6 3556.7 1352.47 3680.63 1388.87" fill="#F7D3B5"/>
<path d="M3676.73 1329.5C3676.73 1329.5 3661.13 1319.53 3662.87 1302.2C3665.47 1281.83 3662.87 1269.27 3653.33 1265.37C3629.5 1255.4 3624.73 1283.13 3625.6 1286.6" stroke="#423232" stroke-width="13.4786" stroke-miterlimit="10" stroke-linecap="round" stroke-linejoin="round"/>
<path d="M4007.37 1371.53C4007.37 1371.53 4023.83 1372.4 4039.43 1353.77C4048.1 1343.37 4055.47 1330.37 4050.7 1326.47C4045.93 1322.13 3967.5 1334.27 3962.3 1344.67C3957.1 1355.07 3987.43 1371.53 4007.37 1371.53Z" fill="#EFBDA5"/>
<path d="M4020.37 1225.93C4020.37 1225.93 4021.23 1267.1 4047.67 1313.03C4059.37 1333.4 4041.6 1366.76 4003.03 1372.4" stroke="#423232" stroke-width="13.4786" stroke-miterlimit="10" stroke-linecap="round" stroke-linejoin="round"/>
<path opacity="0.42" d="M3785.5 1393.63C3810.15 1393.63 3830.13 1377.14 3830.13 1356.8C3830.13 1336.46 3810.15 1319.97 3785.5 1319.97C3760.85 1319.97 3740.87 1336.46 3740.87 1356.8C3740.87 1377.14 3760.85 1393.63 3785.5 1393.63Z" fill="#ED938A"/>
<path opacity="0.42" d="M4105.3 1320.83C4104 1345.1 4104.43 1368.93 4102.7 1392.77C4083.63 1388.43 4069.77 1374.13 4069.77 1357.23C4069.77 1339.03 4084.93 1324.3 4105.3 1320.83Z" fill="#ED938A"/>
<path d="M4238.78 1766.61C4177.25 1687.31 4081.92 1654.37 4029.48 1634.87C4025.15 1613.21 4016.92 1589.37 4003.92 1566.41C3983.98 1578.54 3961.02 1587.64 3937.18 1592.41L3940.65 1606.71C3942.38 1613.64 3951.05 1645.71 3937.62 1686.87C3926.35 1721.54 3880.85 1737.14 3803.72 1702.04C3653.35 1634.01 3636.02 1557.31 3636.02 1557.31C3633.42 1515.71 3629.08 1476.71 3625.18 1445.07C3578.38 1455.47 3524.22 1476.71 3494.75 1521.34C3458.35 1575.94 3444.92 1631.41 3448.38 1675.61C3385.12 1715.91 3287.18 1777.01 3255.12 1886.21C3213.52 2028.34 3220.45 2115.44 3220.45 2115.44H4340.18C4338.88 2115.87 4322.42 1874.51 4238.78 1766.61Z" fill="#6060D8"/>
<path d="M3569.28 1624.47C3569.28 1624.47 3595.72 1727.17 3711.42 1798.24" stroke="#423232" stroke-width="13.4786" stroke-miterlimit="10" stroke-linecap="round" stroke-linejoin="round"/>
<path d="M4029.05 1634.87C4029.05 1634.87 4059.82 1767.91 3992.65 1829.01" stroke="#423232" stroke-width="13.4786" stroke-miterlimit="10" stroke-linecap="round" stroke-linejoin="round"/>
<path d="M3820.18 1808.64C3820.18 1808.64 3797.65 1874.51 3803.72 1920.01" stroke="#423232" stroke-width="13.4786" stroke-miterlimit="10" stroke-linecap="round" stroke-linejoin="round"/>
<path d="M3958.42 1804.74C3958.42 1804.74 3975.32 1841.57 3987.45 1900.07" stroke="#423232" stroke-width="13.4786" stroke-miterlimit="10" stroke-linecap="round" stroke-linejoin="round"/>
<path d="M3447.52 1676.04C3447.52 1676.04 3483.05 1820.77 3694.52 1863.24" stroke="#423232" stroke-width="13.4786" stroke-miterlimit="10" stroke-linecap="round" stroke-linejoin="round"/>
<path d="M3807.62 1929.97L3788.55 1928.24C3781.62 1927.37 3776.42 1920.87 3777.72 1913.94L3784.22 1881.44C3785.95 1872.34 3794.62 1865.84 3803.72 1867.14C3812.82 1868.01 3820.18 1875.81 3820.18 1885.34L3820.62 1918.71C3820.62 1925.21 3814.55 1930.84 3807.62 1929.97Z" fill="white"/>
<path d="M4006.52 1910.04L3988.32 1916.54C3981.38 1919.14 3974.02 1914.81 3972.72 1907.87L3964.92 1875.81C3962.75 1866.71 3967.52 1857.61 3976.62 1854.14C3985.28 1851.11 3995.25 1855.01 3999.15 1863.24L4013.45 1893.14C4016.48 1899.64 4013.45 1907.44 4006.52 1910.04Z" fill="white"/>
<path d="M4197.62 1900.07C4197.62 1900.07 4221.88 2036.14 4212.35 2115.87" stroke="#544D4D" stroke-width="13.4786" stroke-miterlimit="10" stroke-linecap="round" stroke-linejoin="round"/>
<path d="M3864.94 1269.44C3854.54 1269.01 3846.74 1260.34 3847.61 1249.94L3848.04 1237.81C3848.48 1227.41 3857.14 1219.61 3867.54 1220.47C3877.94 1220.91 3885.74 1229.57 3884.88 1239.97L3884.44 1252.11C3884.01 1262.07 3875.34 1269.87 3864.94 1269.44Z" fill="#423232"/>
<path d="M4047.38 1275.94C4037.84 1275.51 4030.48 1267.27 4030.91 1257.74L4031.34 1246.47C4031.78 1236.94 4040.01 1229.57 4049.54 1230.01C4059.08 1230.44 4066.44 1238.67 4066.01 1248.21L4065.58 1259.47C4065.14 1269.01 4056.91 1276.37 4047.38 1275.94Z" fill="#423232"/>
<path d="M3906.98 1244.3C3906.98 1244.3 3895.71 1228.27 3876.21 1225.24C3860.18 1222.64 3842.41 1230.44 3839.81 1239.54" stroke="#423232" stroke-width="13.4786" stroke-miterlimit="10" stroke-linecap="round" stroke-linejoin="round"/>
<path d="M4034.81 1248.21C4034.81 1248.21 4034.81 1234.34 4054.74 1234.34C4071.21 1234.34 4078.14 1249.51 4078.14 1249.51" stroke="#423232" stroke-width="13.4786" stroke-miterlimit="10" stroke-linecap="round" stroke-linejoin="round"/>
<path d="M3924.74 1174.54C3933.84 1177.57 3942.94 1169.34 3941.21 1159.37C3940.34 1154.17 3938.18 1148.97 3933.84 1145.07C3920.84 1133.37 3867.11 1122.97 3834.61 1138.14C3806.01 1152.01 3883.14 1160.67 3924.74 1174.54Z" fill="#423232"/>
<path d="M4054.31 1181.47C4046.94 1184.07 4039.14 1176.27 4040.44 1167.17C4040.87 1162.41 4042.61 1157.64 4046.07 1154.17C4056.47 1143.77 4092.01 1135.54 4114.54 1151.57C4134.04 1165.01 4088.11 1168.91 4054.31 1181.47Z" fill="#423232"/>
<path d="M3985.16 1422.84C3985.61 1430.03 3980.22 1442.61 3970.33 1451.6C3919.56 1420.6 3896.65 1436.77 3896.65 1436.77C3878.68 1409.37 3882.72 1372.08 3926.3 1400.38C3956.85 1419.7 3975.27 1422.84 3985.16 1422.84Z" fill="#423232"/>
<path d="M3970.33 1451.6C3959.55 1461.03 3943.37 1466.88 3921.36 1457.89C3911.03 1453.85 3902.94 1445.76 3896.65 1436.77C3896.65 1436.77 3919.56 1420.6 3970.33 1451.6Z" fill="#FE9DAB"/>
<path d="M3993.69 1421.05C3993.69 1421.05 3974.82 1431.38 3926.3 1400.38C3868.34 1363.09 3880.02 1441.27 3920.91 1457.89C3963.59 1475.41 3985.61 1437.22 3985.16 1422.84" stroke="#423232" stroke-width="13.4786" stroke-miterlimit="10" stroke-linecap="round" stroke-linejoin="round"/>
<path d="M3896.65 1436.77C3896.65 1436.77 3919.56 1420.6 3970.33 1451.6" stroke="#423232" stroke-width="13.4786" stroke-miterlimit="10" stroke-linecap="round" stroke-linejoin="round"/>
<path d="M3658.16 1286.13C3658.16 1286.13 3623.49 1280.93 3626.09 1329.46C3627.39 1354.16 3627.39 1367.59 3626.96 1374.53C3626.52 1379.29 3629.56 1383.63 3633.89 1385.36C3639.09 1387.53 3644.72 1385.36 3647.32 1380.16C3651.22 1373.23 3655.56 1363.69 3655.56 1355.89C3655.56 1342.89 3669.42 1331.19 3669.42 1331.19C3669.42 1331.19 3656.86 1320.36 3658.16 1286.13Z" fill="white"/>
<path d="M3763.02 2121.59C3759.56 2117.69 3623.49 1884.99 3643.86 1797.46C3657.73 1737.23 3639.53 1667.89 3623.49 1606.79C3616.99 1581.66 3610.93 1558.26 3607.46 1537.46C3601.39 1501.49 3605.73 1467.26 3620.46 1435.63C3636.49 1400.09 3633.89 1369.33 3633.89 1368.89L3642.56 1368.03C3642.56 1369.33 3645.16 1401.83 3628.26 1439.09C3614.39 1468.99 3610.49 1501.93 3616.13 1536.16C3619.59 1556.53 3625.66 1579.93 3632.16 1605.06C3648.63 1667.03 3666.83 1737.66 3652.53 1800.06C3633.46 1883.26 3769.09 2115.96 3769.96 2116.83L3763.02 2121.59Z" fill="white"/>
<path d="M3627.39 1354.59C3627.83 1364.12 3627.39 1370.62 3627.39 1374.52C3626.96 1379.29 3629.99 1383.62 3634.33 1385.36C3639.53 1387.52 3645.16 1385.36 3647.76 1380.16C3651.66 1373.22 3655.99 1363.69 3655.99 1355.89C3655.99 1355.46 3655.99 1354.59 3655.99 1354.16C3646.89 1357.62 3636.49 1360.22 3627.39 1354.59Z" fill="#E5E5E5"/>
<path d="M4035.16 1642.76C4032.12 1662.69 4031.69 1694.33 4030.82 1731.16C4029.52 1802.23 3987.49 2079.13 3967.12 2122.89L3959.32 2119.43C3978.82 2076.96 4020.86 1801.36 4022.16 1731.16C4023.02 1694.33 4023.46 1662.26 4026.49 1641.46C4032.99 1597.69 4028.22 1564.76 4025.62 1550.89C4026.92 1549.59 4028.22 1548.73 4029.52 1547.43C4030.82 1546.56 4031.69 1545.26 4032.99 1544.39C4035.59 1555.66 4042.96 1591.63 4035.16 1642.76Z" fill="white"/>
</g>
<path d="M4141.22 969.02C4130.41 936.127 4115.09 907.741 4099.32 892.421C4066.43 859.979 4055.61 903.686 4055.61 903.686C4055.61 903.686 4005.6 810.416 3936.66 797.799C3887.55 788.788 3900.62 845.561 3900.62 845.561C3900.62 845.561 3841.14 782.029 3758.69 782.029C3693.36 782.029 3718.14 838.351 3718.14 838.351C3718.14 838.351 3671.73 771.666 3622.62 783.381C3573.5 795.096 3591.98 891.97 3591.98 891.97C3552.78 793.744 3486.09 889.267 3474.83 1094.73C3468.07 1216.84 3504.12 1296.14 3528.45 1335.34C3550.07 1374.09 3574.41 1401.13 3587.92 1425.46C3607.3 1460.15 3616.76 1498 3616.76 1498C3655.06 1429.51 3655.51 1392.56 3655.51 1392.56C3542.87 1349.31 3563.14 1223.6 3618.11 1216.39C3675.78 1209.18 3693.81 1260.54 3696.96 1273.16C3717.69 1248.38 3661.36 1087.52 3761.39 1048.32C3858.26 1010.47 3918.64 1066.34 4022.27 1080.31C4054.71 1084.82 4085.35 1060.94 4108.78 1064.99C4115.99 1066.34 4121.39 1071.75 4123.65 1078.96C4125.45 1085.72 4127.25 1092.48 4129.05 1099.69C4135.36 1127.17 4252.51 990.647 4141.22 969.02Z" fill="#423232"/>
<path d="M2241 3074C1881.71 3074 1591 2782.86 1591 2424C1591 2064.71 1882.14 1774 2241 1774C2600.29 1774 2891 2065.14 2891 2424C2891.43 2783.29 2600.29 3074 2241 3074Z" fill="#B5E2DC"/>
<mask id="mask1_411_1170" style="mask-type:alpha" maskUnits="userSpaceOnUse" x="1591" y="1774" width="1301" height="1300">
<path d="M2241 3074C1881.71 3074 1591 2782.86 1591 2424C1591 2064.71 1882.14 1774 2241 1774C2600.29 1774 2891 2065.14 2891 2424C2891.43 2783.29 2600.29 3074 2241 3074Z" fill="#F7C0B5"/>
</mask>
<g mask="url(#mask1_411_1170)">
<path d="M2605 2971.33C2601.97 2973.5 2598.5 2975.67 2595.47 2977.83C2592 2980 2588.97 2982.17 2585.5 2983.9C2582.47 2985.63 2579.87 2987.37 2576.83 2989.1C2576.4 2989.53 2575.97 2989.53 2575.53 2989.97C2565.57 2996.03 2555.17 3001.67 2544.77 3006.87C2541.73 3008.6 2538.27 3010.33 2535.23 3011.63C2535.23 3011.63 2534.8 3012.07 2534.37 3012.07C2530.9 3013.8 2527.43 3015.53 2523.97 3017.27C2517.03 3020.73 2509.67 3023.77 2502.73 3026.8C2499.27 3028.53 2495.37 3029.83 2491.9 3031.13C2488.43 3032.43 2484.53 3034.17 2481.07 3035.47C2477.6 3036.77 2473.7 3038.5 2470.23 3039.8C2470.23 3039.8 2470.23 3039.8 2469.8 3039.8C2466.33 3041.1 2462.43 3042.4 2458.97 3043.7C2451.17 3046.3 2442.93 3048.9 2435.13 3051.5C2432.53 3052.37 2429.5 3053.23 2426.9 3054.1C2418.67 3056.7 2410.43 3058.87 2402.2 3060.6C2399.17 3061.47 2396.13 3061.9 2392.67 3062.77C2384.87 3064.5 2376.63 3066.23 2368.83 3067.97C2367.1 3068.4 2365.8 3068.4 2364.07 3068.83C2361.47 3069.27 2358.43 3069.7 2355.83 3070.13C2351.93 3070.57 2348.47 3071.43 2344.57 3071.87C2342.83 3072.3 2341.1 3072.3 2339.37 3072.73C2337.2 3073.17 2334.6 3073.6 2332 3073.6C2325.07 3074.47 2317.7 3075.33 2310.77 3076.2C2308.6 3076.63 2306 3076.63 2303.83 3077.07H2303.4C2300.37 3077.5 2297.33 3077.5 2294.3 3077.93C2291.27 3078.37 2288.23 3078.37 2285.2 3078.37C2283.47 3078.37 2281.3 3078.8 2279.57 3078.8C2276.1 3078.8 2273.07 3079.23 2270.03 3079.23C2265.7 3079.23 2261.8 3079.67 2257.47 3079.67C2253.13 3079.67 2249.23 3079.67 2244.9 3079.67C2241.87 3079.67 2238.83 3079.67 2235.8 3079.67C2053.37 3077.07 1888.7 2999.5 1771.7 2876.43C1771.7 2876.43 1771.7 2876 1771.27 2876C1784.7 2849.57 1834.53 2801.9 1886.53 2762.47C1952.4 2712.63 2045.57 2681.87 2045.57 2681.87C2045.57 2681.87 2106.67 2671.9 2333.3 2719.13C2506.2 2755.53 2579.87 2903.3 2605 2971.33Z" fill="#F7D3B5"/>
<path d="M2381.4 2839.16C2372.3 2883.8 2313.37 2910.23 2214.13 2870.36C2092.37 2820.96 2045.57 2681.86 2045.57 2681.86C2039.07 2582.2 2023.9 2496.83 2023.9 2496.83C2164.73 2484.7 2331.13 2649.36 2331.13 2649.36L2350.2 2730.83C2351.93 2737.76 2355.4 2743.83 2360.6 2748.16C2369.7 2763.76 2387.47 2810.56 2381.4 2839.16Z" fill="#F7D3B5"/>
<path d="M2360.6 2748.6C2277.83 2744.27 2216.73 2732.13 2151.3 2614.7C2206.77 2663.67 2272.2 2682.3 2341.1 2690.97L2350.2 2730.83C2351.93 2738.2 2355.4 2744.27 2360.6 2748.6Z" fill="#EFBDA5"/>
<path d="M2531.77 2226.43C2539.57 2262.83 2543.47 2292.3 2522.23 2389.36C2501 2486.43 2541.73 2583.5 2439.47 2672.33C2370.57 2732.13 2250.1 2743.4 2153.9 2677.96C2121.4 2655.86 2091.5 2625.1 2067.23 2584.8C2048.17 2553.16 2026.07 2523.26 2001.37 2495.96C1967.13 2458.7 1925.97 2383.73 1946.33 2251.13C1979.27 2035.33 2192.9 2010.63 2319 2034.46C2445.1 2058.3 2510.53 2130.23 2531.77 2226.43Z" fill="#F7D3B5"/>
<path d="M2117.07 2395.86C2117.07 2395.86 2103.63 2330.86 2040.37 2338.66C1985.77 2345.6 1966.7 2476.46 2090.63 2512.86" fill="#F7D3B5"/>
<path d="M2086.73 2453.5C2086.73 2453.5 2071.13 2443.53 2072.87 2426.2C2075.47 2405.83 2072.87 2393.27 2063.33 2389.37C2039.5 2379.4 2034.73 2407.13 2035.6 2410.6" stroke="#423232" stroke-width="13" stroke-miterlimit="10" stroke-linecap="round" stroke-linejoin="round"/>
<path d="M2417.37 2495.53C2417.37 2495.53 2433.83 2496.4 2449.43 2477.76C2458.1 2467.36 2465.47 2454.36 2460.7 2450.46C2455.93 2446.13 2377.5 2458.26 2372.3 2468.66C2367.1 2479.06 2397.43 2495.53 2417.37 2495.53Z" fill="#EFBDA5"/>
<path d="M2430.37 2349.93C2430.37 2349.93 2431.23 2391.1 2457.67 2437.03C2469.37 2457.4 2451.6 2490.77 2413.03 2496.4" stroke="#423232" stroke-width="13" stroke-miterlimit="10" stroke-linecap="round" stroke-linejoin="round"/>
<path opacity="0.42" d="M2195.5 2517.63C2220.15 2517.63 2240.13 2501.14 2240.13 2480.8C2240.13 2460.45 2220.15 2443.96 2195.5 2443.96C2170.85 2443.96 2150.87 2460.45 2150.87 2480.8C2150.87 2501.14 2170.85 2517.63 2195.5 2517.63Z" fill="#ED938A"/>
<path opacity="0.42" d="M2515.3 2444.83C2514 2469.1 2514.43 2492.93 2512.7 2516.76C2493.63 2512.43 2479.77 2498.13 2479.77 2481.23C2479.77 2463.03 2494.93 2448.3 2515.3 2444.83Z" fill="#ED938A"/>
<path d="M2498.84 2803.6C2498.84 2803.6 2431.67 2740.77 2365.37 2725.6C2365.37 2725.6 2373.17 2837.4 2294.3 2829.17C2166.9 2815.73 2046.87 2680.53 2046.87 2680.53C2046.87 2680.53 1963.24 2703.93 1895.64 2755.5C1895.64 2755.5 1904.74 2888.53 2056.84 2954.4C2208.94 3020.27 2420.84 2987.77 2471.1 2945.3C2521.37 2902.83 2511.4 2817.47 2498.84 2803.6Z" fill="white"/>
<path d="M1858.37 2784.1C1858.37 2784.1 1774.3 2830.47 1728.37 2962.63C1682.44 3094.8 1683.74 3291.53 1683.74 3291.53H2672.6C2672.6 3291.53 2644.87 2966.97 2546.94 2858.63C2546.94 2858.63 2553.44 2955.7 2361.47 2965.67C2169.5 2975.63 1938.54 2914.53 1932.9 2879C1927.7 2842.6 1858.37 2784.1 1858.37 2784.1Z" fill="white"/>
<path d="M2587.24 3299.33C2315.1 3425 1867.04 3311.47 1867.04 3311.47C1867.04 3311.47 1857.94 3200.97 1890.87 3002.07C1892.17 2992.97 1893.47 2983.87 1894.34 2975.63C1903.87 2885.5 1881.77 2823.53 1858.37 2784.53C1858.37 2774.57 1868.77 2767.63 1880.47 2757.67C1885.24 2753.77 1970.6 2700.9 1974.07 2703.5C1980.14 2712.17 1985.77 2720.83 1990.54 2729.93C2039.07 2819.63 2055.97 2915.83 2156.94 2929.7C2256.6 2943.57 2352.8 2941.4 2421.7 2926.23C2488 2911.5 2443.8 2801.43 2414.34 2747.27C2413.04 2745.1 2413.04 2744.23 2411.74 2743.37C2421.7 2736.87 2537.4 2825.7 2546.5 2858.63C2565.57 2906.3 2570.77 2941.83 2576.4 2988.2C2595.04 3140.3 2587.24 3299.33 2587.24 3299.33Z" fill="#77A0E0"/>
<path d="M1992.27 2926.67C2007.59 2926.67 2020 2914.25 2020 2898.93C2020 2883.62 2007.59 2871.2 1992.27 2871.2C1976.95 2871.2 1964.54 2883.62 1964.54 2898.93C1964.54 2914.25 1976.95 2926.67 1992.27 2926.67Z" fill="#647184"/>
<path d="M2509.24 2938.37C2523.12 2938.37 2534.37 2927.12 2534.37 2913.23C2534.37 2899.35 2523.12 2888.1 2509.24 2888.1C2495.36 2888.1 2484.1 2899.35 2484.1 2913.23C2484.1 2927.12 2495.36 2938.37 2509.24 2938.37Z" fill="#647184"/>
<path d="M2185.97 2977.8C2251.84 2981.7 2334.17 2983 2403.07 2973.03C2449.44 2966.53 2491.47 3000.77 2494.94 3047.13C2497.97 3093.07 2499.27 3148.97 2491.9 3197.93C2476.74 3303.67 2098.44 3298.47 2092.37 3205.3C2088.9 3157.2 2085.87 3118.2 2082.4 3086.13C2075.9 3025.9 2125.3 2974.33 2185.97 2977.8Z" stroke="#647184" stroke-width="13" stroke-miterlimit="10"/>
<path d="M2312.07 2828.73C2312.07 2828.73 2232.77 2924.93 2208.5 2917.57C2184.24 2910.2 2033.44 2830.03 2009.6 2693.1C2009.6 2693.1 2028.24 2662.77 2044.7 2653.23C2044.7 2653.23 2090.2 2733.4 2172.54 2781.5C2250.97 2827 2312.07 2828.73 2312.07 2828.73Z" fill="white"/>
<path d="M2312.07 2828.73C2312.07 2828.73 2232.77 2924.93 2208.5 2917.57C2184.24 2910.2 2033.44 2830.03 2009.6 2693.1" stroke="#D0D6DD" stroke-width="13" stroke-miterlimit="10" stroke-linecap="round" stroke-linejoin="round"/>
<path d="M2312.07 2828.73C2312.07 2828.73 2373.6 2900.67 2393.97 2901.53C2414.34 2902.4 2423 2775.87 2361.9 2711.73C2361.9 2711.73 2352.37 2714.33 2348.47 2715.2C2348.04 2714.77 2378.8 2807.07 2312.07 2828.73Z" fill="white"/>
<path d="M2312.07 2828.73C2312.07 2828.73 2373.6 2900.67 2393.97 2901.53C2414.34 2902.4 2423 2775.87 2361.9 2711.73" stroke="#D0D6DD" stroke-width="13" stroke-miterlimit="10" stroke-linecap="round" stroke-linejoin="round"/>
<path d="M2306 2835.67C2306 2835.67 2293.87 2849.1 2298.2 2878.57C2302.54 2907.6 2301.67 2936.63 2301.67 2936.63" stroke="#D0D6DD" stroke-width="13" stroke-miterlimit="10" stroke-linecap="round" stroke-linejoin="round"/>
<path d="M2328.1 2900.67C2333.61 2900.67 2338.07 2896.2 2338.07 2890.7C2338.07 2885.2 2333.61 2880.73 2328.1 2880.73C2322.6 2880.73 2318.14 2885.2 2318.14 2890.7C2318.14 2896.2 2322.6 2900.67 2328.1 2900.67Z" fill="#D0D6DD"/>
<path d="M2274.94 2393.44C2264.54 2393.01 2256.74 2384.34 2257.61 2373.94L2258.04 2361.81C2258.48 2351.41 2267.14 2343.61 2277.54 2344.47C2287.94 2344.91 2295.74 2353.57 2294.88 2363.97L2294.44 2376.11C2294.01 2386.07 2285.34 2393.87 2274.94 2393.44Z" fill="#423232"/>
<path d="M2457.38 2399.94C2447.84 2399.51 2440.48 2391.27 2440.91 2381.74L2441.34 2370.47C2441.78 2360.94 2450.01 2353.57 2459.54 2354.01C2469.08 2354.44 2476.44 2362.67 2476.01 2372.21L2475.58 2383.47C2475.14 2393.01 2466.91 2400.37 2457.38 2399.94Z" fill="#423232"/>
<path d="M2316.98 2368.31C2316.98 2368.31 2305.71 2352.27 2286.21 2349.24C2270.18 2346.64 2252.41 2354.44 2249.81 2363.54" stroke="#423232" stroke-width="13" stroke-miterlimit="10" stroke-linecap="round" stroke-linejoin="round"/>
<path d="M2444.81 2372.21C2444.81 2372.21 2444.81 2358.34 2464.74 2358.34C2481.21 2358.34 2488.14 2373.51 2488.14 2373.51" stroke="#423232" stroke-width="13" stroke-miterlimit="10" stroke-linecap="round" stroke-linejoin="round"/>
<path d="M2334.74 2298.54C2343.84 2301.57 2352.94 2293.34 2351.21 2283.37C2350.34 2278.17 2348.18 2272.97 2343.84 2269.07C2330.84 2257.37 2277.11 2246.97 2244.61 2262.14C2216.01 2276.01 2293.14 2284.67 2334.74 2298.54Z" fill="#423232"/>
<path d="M2464.31 2305.47C2456.94 2308.07 2449.14 2300.27 2450.44 2291.17C2450.87 2286.41 2452.61 2281.64 2456.07 2278.17C2466.47 2267.77 2502.01 2259.54 2524.54 2275.57C2544.04 2289.01 2498.11 2292.91 2464.31 2305.47Z" fill="#423232"/>
<path d="M2400.3 2524.86C2400.3 2524.86 2411.56 2518.79 2417.63 2529.19C2423.7 2539.59 2408.96 2551.29 2408.96 2551.29C2408.96 2551.29 2425.43 2563.42 2414.16 2578.59C2405.06 2590.72 2391.2 2589.86 2391.2 2589.86" stroke="#423232" stroke-width="13" stroke-miterlimit="10" stroke-linecap="round" stroke-linejoin="round"/>
<path d="M2357.19 2713.66C2388.82 2705.43 2416.99 2691.13 2439.95 2671.2C2542.22 2582.8 2501.49 2485.3 2522.72 2388.23C2529.65 2357.03 2533.55 2332.76 2536.15 2313.26C2532.69 2312.83 2528.79 2312.4 2524.89 2311.53C2509.29 2309.36 2498.89 2295.06 2500.62 2279.46C2501.49 2272.96 2501.92 2266.46 2502.35 2259.53C2500.62 2259.1 2501.05 2259.1 2499.32 2259.1C2496.72 2267.33 2493.69 2276 2491.52 2284.23C2487.62 2297.23 2475.05 2305.46 2462.05 2304.6H2461.62C2446.45 2303.3 2435.19 2290.73 2435.19 2275.56C2435.62 2264.73 2435.62 2253.9 2436.05 2243.06C2434.32 2242.63 2435.19 2243.06 2433.45 2242.63C2431.29 2253.9 2429.12 2265.16 2426.95 2276.86C2424.35 2291.16 2411.79 2301.13 2397.49 2300.26C2360.22 2298.53 2323.39 2298.1 2290.02 2298.1C2275.29 2298.1 2263.15 2287.26 2261.85 2272.53C2259.69 2253.46 2256.65 2234.4 2251.45 2214.9C2245.82 2232.23 2245.82 2250.43 2246.69 2269.06C2247.55 2285.1 2234.99 2298.53 2218.95 2298.96C2180.39 2299.83 2154.39 2301.13 2150.05 2301.56C2151.35 2360.93 2137.92 2426.8 2114.09 2382.16C2112.35 2379.13 2111.05 2376.1 2109.32 2372.2C2099.35 2354.43 2079.42 2333.2 2041.72 2337.96C1988.85 2344.9 1969.35 2467.53 2080.29 2508.26C2080.72 2517.36 2082.89 2526.46 2086.79 2536C2103.69 2577.16 2111.05 2611.4 2111.05 2639.56C2111.05 2802.93 1843.69 2734.9 1768.29 2586.7C1739.25 2529.06 1738.82 2459.73 1793.85 2386.93C1928.62 2221.83 1888.32 2284.66 1918.22 2186.73C1967.19 2026.4 2078.99 1975.26 2227.19 1976.56C2227.19 1976.56 2473.75 1976.56 2539.19 2036.36C2604.62 2096.16 2582.09 2282.93 2576.45 2299.83C2574.72 2305.03 2570.39 2308.06 2565.62 2310.23C2563.02 2395.6 2571.69 2425.5 2602.02 2494.4C2668.32 2646.06 2543.09 2790.36 2357.19 2713.66Z" fill="#423232"/>
<path d="M2114.09 2382.6C2112.35 2379.56 2111.05 2376.53 2109.32 2372.63C2111.05 2376.1 2112.79 2379.56 2114.09 2382.6Z" fill="#FEE4BF"/>
<path opacity="0.6" d="M2456.08 2451.25C2456.08 2451.25 2461.28 2480.72 2495.52 2495.45C2504.18 2498.92 2513.28 2493.29 2513.28 2483.75C2512.85 2483.75 2458.25 2454.72 2456.08 2451.25Z" fill="#B7AEA9"/>
<path opacity="0.6" d="M2373.75 2380.19C2373.75 2380.19 2401.48 2352.45 2415.35 2349.42L2378.52 2358.09L2373.75 2380.19Z" fill="#B7AEA9"/>
<path opacity="0.6" d="M2188.72 2451.25C2188.72 2451.25 2204.75 2487.65 2252.85 2496.32C2300.95 2505.42 2344.72 2470.75 2365.08 2412.69C2365.08 2412.69 2348.62 2466.42 2282.75 2476.39C2217.32 2487.22 2188.72 2451.25 2188.72 2451.25Z" fill="#B7AEA9"/>
<path opacity="0.29" d="M2266.28 2256.69C2205.18 2256.69 2155.35 2307.82 2154.92 2370.22C2154.92 2399.69 2165.75 2426.55 2183.52 2446.05L2340.82 2287.02C2321.32 2267.95 2295.32 2256.69 2266.28 2256.69Z" fill="#DBC3ED"/>
<path opacity="0.23" d="M2340.82 2287.02L2183.52 2446.05C2203.45 2468.15 2231.62 2481.59 2262.82 2481.59C2323.05 2481.59 2372.45 2431.75 2374.18 2369.79C2375.05 2337.29 2362.05 2307.82 2340.82 2287.02Z" fill="#C4ADD8"/>
<path opacity="0.29" d="M2519.78 2256.69C2473.42 2256.69 2434.42 2307.82 2432.68 2370.22C2431.82 2395.35 2437.45 2418.32 2446.98 2436.95L2584.35 2300.89C2570.05 2274.02 2546.65 2256.69 2519.78 2256.69Z" fill="#DBC3ED"/>
<path opacity="0.23" d="M2584.35 2300.45L2446.98 2436.52C2461.28 2463.82 2484.68 2481.59 2511.98 2481.59C2557.48 2481.59 2596.48 2431.75 2599.08 2369.79C2599.95 2344.22 2594.32 2319.95 2584.35 2300.45Z" fill="#C4ADD8"/>
<path d="M2374.18 2370.22C2372.88 2432.19 2323.05 2482.02 2262.82 2482.02C2202.58 2482.02 2154.48 2432.19 2154.48 2370.22C2154.92 2307.82 2204.75 2256.69 2265.85 2256.69C2326.95 2256.69 2375.92 2307.82 2374.18 2370.22Z" stroke="#4EC2DD" stroke-width="13" stroke-miterlimit="10" stroke-linecap="round" stroke-linejoin="round"/>
<path d="M2599.08 2370.22C2596.48 2432.19 2557.48 2482.02 2511.98 2482.02C2466.48 2482.02 2430.95 2432.19 2432.68 2370.22C2434.42 2307.82 2473.42 2256.69 2519.78 2256.69C2566.15 2256.69 2601.68 2307.82 2599.08 2370.22Z" stroke="#4EC2DD" stroke-width="13" stroke-miterlimit="10" stroke-linecap="round" stroke-linejoin="round"/>
<path d="M2155.78 2358.09H2094.25" stroke="#4EC2DD" stroke-width="13" stroke-miterlimit="10" stroke-linecap="round" stroke-linejoin="round"/>
<path d="M2374.62 2358.09C2374.62 2358.09 2426.18 2338.15 2432.68 2358.09" stroke="#4EC2DD" stroke-width="13" stroke-miterlimit="10" stroke-linecap="round" stroke-linejoin="round"/>
</g>
<path d="M2239 1300C1879.71 1300 1589 1008.86 1589 650C1589 290.71 1880.14 0 2239 0C2598.29 0 2889 291.141 2889 650C2889.43 1009.29 2598.29 1300 2239 1300Z" fill="#F4DA92"/>
<mask id="mask2_411_1170" style="mask-type:alpha" maskUnits="userSpaceOnUse" x="1589" y="0" width="1300" height="1300">
<path d="M2239 1300C1879.71 1300 1589 1008.86 1589 650C1589 290.71 1880.14 0 2239 0C2598.29 0 2889 291.141 2889 650C2889.43 1009.29 2598.29 1300 2239 1300Z" fill="#F7C0B5"/>
</mask>
<g mask="url(#mask2_411_1170)">
<path d="M2603.87 1197.33C2600.83 1199.5 2597.37 1201.66 2594.33 1203.83C2590.87 1206 2587.83 1208.16 2584.37 1209.9C2581.33 1211.63 2578.73 1213.36 2575.7 1215.1C2575.27 1215.53 2574.83 1215.53 2574.4 1215.96C2564.43 1222.03 2554.03 1227.66 2543.63 1232.86C2540.6 1234.6 2537.13 1236.33 2534.1 1237.63C2534.1 1237.63 2533.67 1238.06 2533.23 1238.06C2529.77 1239.8 2526.3 1241.53 2522.83 1243.26C2515.9 1246.73 2508.53 1249.76 2501.6 1252.8C2498.13 1254.53 2494.23 1255.83 2490.77 1257.13C2487.3 1258.43 2483.4 1260.16 2479.93 1261.46C2476.47 1262.76 2472.57 1264.5 2469.1 1265.8C2469.1 1265.8 2469.1 1265.8 2468.67 1265.8C2465.2 1267.1 2461.3 1268.4 2457.83 1269.7C2450.03 1272.3 2441.8 1274.9 2434 1277.5C2431.4 1278.36 2428.37 1279.23 2425.77 1280.1C2417.53 1282.7 2409.3 1284.86 2401.07 1286.6C2398.03 1287.46 2395 1287.9 2391.53 1288.76C2383.73 1290.5 2375.5 1292.23 2367.7 1293.96C2365.97 1294.4 2364.67 1294.4 2362.93 1294.83C2360.33 1295.26 2357.3 1295.7 2354.7 1296.13C2350.8 1296.56 2347.33 1297.43 2343.43 1297.86C2341.7 1298.3 2339.97 1298.3 2338.23 1298.73C2336.07 1299.16 2333.47 1299.6 2330.87 1299.6C2323.93 1300.46 2316.57 1301.33 2309.63 1302.2C2307.47 1302.63 2304.87 1302.63 2302.7 1303.06H2302.27C2299.23 1303.5 2296.2 1303.5 2293.17 1303.93C2290.13 1304.36 2287.1 1304.36 2284.07 1304.36C2282.33 1304.36 2280.17 1304.8 2278.43 1304.8C2274.97 1304.8 2271.93 1305.23 2268.9 1305.23C2264.57 1305.23 2260.67 1305.66 2256.33 1305.66C2252 1305.66 2248.1 1305.66 2243.77 1305.66C2240.73 1305.66 2237.7 1305.66 2234.67 1305.66C2052.23 1303.06 1887.57 1225.5 1770.57 1102.43C1770.57 1102.43 1770.57 1102 1770.13 1102C1783.57 1075.56 1833.4 1027.9 1885.4 988.465C1951.27 938.632 2044.43 907.865 2044.43 907.865C2044.43 907.865 2105.53 897.898 2332.17 945.132C2505.07 981.532 2578.73 1129.3 2603.87 1197.33Z" fill="#AD827B"/>
<path d="M2380.27 1065.16C2371.17 1109.8 2312.23 1136.23 2213 1096.36C2091.23 1046.96 2044.43 907.865 2044.43 907.865C2037.93 808.198 2022.77 722.831 2022.77 722.831C2163.6 710.698 2330 875.365 2330 875.365L2349.07 956.831C2350.8 963.765 2354.27 969.831 2359.47 974.165C2368.57 989.765 2386.33 1036.56 2380.27 1065.16Z" fill="#AD827B"/>
<path d="M2359.47 974.598C2276.7 970.264 2215.6 958.131 2150.17 840.698C2205.63 889.664 2271.07 908.298 2339.97 916.964L2349.07 956.831C2350.8 964.198 2354.27 970.264 2359.47 974.598Z" fill="#8E5650"/>
<path d="M2530.63 452.431C2538.43 488.831 2542.33 518.298 2521.1 615.365C2499.87 712.431 2540.6 809.498 2438.33 898.331C2369.43 958.131 2248.97 969.398 2152.77 903.965C2120.27 881.865 2090.37 851.098 2066.1 810.798C2047.03 779.165 2024.93 749.265 2000.23 721.965C1966 684.698 1924.83 609.731 1945.2 477.131C1978.13 261.332 2191.77 236.632 2317.87 260.465C2443.97 284.298 2509.4 356.231 2530.63 452.431Z" fill="#AD827B"/>
<path d="M2115.93 621.866C2115.93 621.866 2102.5 556.866 2039.23 564.666C1984.63 571.599 1965.57 702.466 2089.5 738.866" fill="#AD827B"/>
<path d="M2085.6 679.499C2085.6 679.499 2070 669.532 2071.73 652.199C2074.33 631.832 2071.73 619.266 2062.2 615.366C2038.37 605.399 2033.6 633.132 2034.47 636.599" stroke="#423232" stroke-width="13.4786" stroke-miterlimit="10" stroke-linecap="round" stroke-linejoin="round"/>
<path d="M2416.23 721.532C2416.23 721.532 2432.7 722.399 2448.3 703.766C2456.97 693.366 2464.33 680.366 2459.57 676.466C2454.8 672.132 2376.37 684.266 2371.17 694.666C2365.97 705.066 2396.3 721.532 2416.23 721.532Z" fill="#8E605C"/>
<path d="M2429.23 575.931C2429.23 575.931 2430.1 617.097 2456.53 663.031C2468.23 683.397 2450.47 716.764 2411.9 722.397" stroke="#423232" stroke-width="13.4786" stroke-miterlimit="10" stroke-linecap="round" stroke-linejoin="round"/>
<path d="M1966.18 903.566C1966.18 903.566 2029.44 878.433 2041.14 877.566L2042.01 887.533C2042.01 887.533 1991.74 909.199 1988.71 912.666C1985.68 916.133 1966.18 903.566 1966.18 903.566Z" fill="#7E5D6D"/>
<path d="M2747.04 1466.03H1651.58C1651.58 1466.03 1658.08 1264.97 1723.94 1121.53C1773.78 1013.2 1893.38 941.699 1980.48 910.499C2005.18 901.832 2024.24 892.299 2042.01 887.532C2042.01 889.699 2043.31 905.732 2043.31 907.466C2043.31 907.466 2115.24 1006.7 2275.58 1005.4C2371.78 1004.97 2344.91 942.566 2344.91 942.566C2353.14 940.832 2360.94 938.666 2368.74 936.066C2371.34 935.199 2389.54 927.832 2391.71 926.966C2447.61 941.699 2516.08 983.299 2615.31 1066.5C2727.11 1160.53 2747.04 1466.03 2747.04 1466.03Z" fill="#E89D6B"/>
<mask id="mask3_411_1170" style="mask-type:alpha" maskUnits="userSpaceOnUse" x="1651" y="887" width="1097" height="580">
<path d="M2747.04 1466.03H1651.58C1651.58 1466.03 1658.08 1264.97 1723.94 1121.53C1773.78 1013.2 1893.38 941.699 1980.48 910.499C2005.18 901.833 2024.24 892.299 2042.01 887.533C2042.01 889.699 2043.31 905.733 2043.31 907.466C2043.31 907.466 2115.24 1006.7 2275.58 1005.4C2371.78 1004.97 2344.91 942.566 2344.91 942.566C2353.14 940.833 2360.94 938.666 2368.74 936.066C2371.34 935.199 2389.54 927.833 2391.71 926.966C2447.61 941.699 2516.08 983.299 2615.31 1066.5C2727.11 1160.53 2747.04 1466.03 2747.04 1466.03Z" fill="#E89D6B"/>
</mask>
<g mask="url(#mask3_411_1170)">
<path d="M1876.48 877.998C1900.31 878.864 1912.44 879.298 1936.28 878.864C1957.51 891.431 1967.91 897.498 1989.58 909.198C2011.68 907.898 2022.94 907.031 2045.04 904.431C2067.14 914.831 2077.98 920.031 2100.08 929.998C2122.61 926.531 2133.88 924.364 2155.98 920.031C2178.51 928.698 2190.21 932.598 2212.74 939.964C2235.28 934.331 2246.54 930.864 2269.08 924.364C2292.48 930.431 2304.18 933.464 2327.58 938.664C2350.11 930.431 2361.38 926.531 2383.91 917.431C2407.74 921.331 2419.88 923.064 2443.71 926.098C2465.81 915.698 2477.08 910.498 2499.18 899.231C2523.44 900.531 2535.58 900.964 2559.84 901.398C2581.51 888.398 2592.34 881.898 2614.01 868.464C2641.31 866.298 2654.74 864.998 2682.04 861.964C2679.88 872.364 2679.01 877.564 2677.28 887.964C2654.74 890.564 2643.04 891.864 2620.51 893.598C2598.41 907.464 2587.58 914.398 2565.04 927.398C2540.34 927.398 2528.21 926.964 2503.51 925.664C2480.98 936.931 2469.71 942.564 2447.18 952.964C2422.91 949.931 2410.78 948.198 2386.51 944.731C2363.98 953.831 2352.28 958.164 2329.74 965.964C2305.91 960.764 2294.21 957.731 2270.81 951.664C2248.28 958.164 2236.58 961.631 2214.04 967.264C2191.08 959.464 2179.38 955.564 2156.41 946.898C2133.88 951.231 2122.61 953.398 2099.64 956.864C2077.11 946.898 2066.28 942.131 2043.74 931.298C2021.21 933.464 2009.94 934.331 1987.84 935.631C1966.18 923.931 1955.34 917.864 1934.11 904.864C1914.18 904.864 1904.21 904.864 1884.28 903.998C1881.24 894.031 1879.94 888.831 1876.48 877.998Z" fill="#FFFF8D"/>
<path d="M1870.41 988.065C1894.24 988.498 1905.94 988.498 1930.21 987.631C1951.88 999.765 1962.71 1005.4 1984.38 1016.66C2006.48 1014.93 2017.31 1013.63 2039.41 1010.6C2061.51 1020.56 2072.78 1025.33 2095.31 1034.43C2117.41 1030.53 2128.24 1027.93 2150.78 1023.16C2173.74 1030.96 2185.44 1034.86 2208.41 1041.8C2230.51 1035.3 2241.78 1032.26 2263.88 1024.9C2287.28 1030.53 2299.41 1033.13 2322.81 1037.9C2344.91 1029.23 2355.74 1024.9 2377.84 1015.36C2402.11 1018.83 2413.81 1020.13 2438.08 1022.3C2459.74 1011.46 2470.58 1005.83 2492.24 994.131C2516.51 994.998 2529.08 994.998 2553.34 994.565C2574.58 981.565 2584.98 974.632 2606.21 960.765C2633.51 958.165 2647.38 956.865 2674.68 952.965C2672.94 963.365 2672.51 968.565 2670.78 978.531C2647.81 981.565 2636.54 982.865 2614.01 985.031C2592.34 999.331 2581.94 1006.26 2560.28 1019.7C2535.58 1020.13 2523.01 1020.13 2498.31 1019.26C2476.21 1030.96 2465.38 1036.6 2443.28 1047.86C2419.01 1045.7 2406.44 1044.4 2382.18 1040.93C2360.08 1050.46 2348.81 1054.8 2326.28 1063.46C2302.44 1058.7 2290.31 1056.1 2266.48 1050.46C2243.94 1057.83 2233.11 1060.86 2210.58 1067.36C2187.18 1060.43 2175.48 1056.53 2152.51 1048.73C2129.98 1053.5 2119.14 1056.1 2096.61 1060C2074.08 1050.9 2062.38 1046.13 2039.84 1035.73C2017.74 1038.33 2006.48 1039.63 1984.38 1041.8C1962.28 1030.53 1951.44 1024.46 1929.78 1012.33C1909.84 1012.76 1899.88 1013.2 1880.38 1012.76C1876.04 1003.23 1874.31 998.032 1870.41 988.065Z" fill="#FFFF8D"/>
<path d="M1864.34 1096.4C1887.74 1095.96 1899.88 1095.53 1923.71 1094.66C1945.38 1106.36 1956.64 1112 1978.74 1122.4C2000.41 1119.8 2011.24 1118.5 2032.91 1115.03C2055.44 1124.56 2066.71 1128.9 2089.68 1137.56C2111.34 1132.8 2122.18 1130.63 2144.28 1125C2167.68 1132.36 2179.38 1135.83 2202.78 1142.33C2224.44 1135.4 2235.28 1131.93 2256.94 1124.56C2280.78 1129.76 2292.91 1131.93 2316.74 1136.26C2338.41 1127.16 2349.24 1122.83 2370.48 1112.86C2394.74 1115.46 2406.88 1116.76 2431.14 1118.5C2452.38 1107.23 2463.21 1101.6 2484.01 1089.46C2508.71 1089.46 2520.84 1089.46 2545.54 1088.6C2566.34 1075.16 2576.74 1068.23 2597.11 1054.36C2624.41 1051.33 2638.28 1049.6 2665.58 1045.26C2664.28 1055.23 2663.84 1060.43 2662.98 1070.83C2640.01 1074.3 2628.74 1076.03 2605.78 1078.63C2584.98 1092.93 2574.14 1100.3 2553.34 1113.73C2528.21 1114.6 2515.64 1115.03 2490.94 1114.6C2469.28 1126.73 2458.88 1132.36 2437.21 1144.06C2412.51 1142.33 2400.38 1141.46 2375.68 1138.43C2354.01 1148.4 2343.18 1153.16 2321.08 1162.26C2296.81 1158.36 2284.68 1155.76 2260.84 1150.56C2238.74 1158.36 2227.91 1161.83 2205.81 1168.76C2181.98 1162.26 2170.28 1158.8 2146.88 1151.43C2124.78 1157.06 2113.94 1159.66 2091.84 1164C2068.88 1155.33 2057.18 1150.56 2034.64 1141.03C2012.54 1144.5 2001.71 1145.8 1979.61 1148.4C1957.08 1137.56 1946.24 1131.93 1924.14 1120.23C1904.64 1121.1 1894.68 1121.53 1875.18 1121.96C1870.84 1112 1868.68 1106.8 1864.34 1096.4Z" fill="#FFFF8D"/>
<path d="M1857.84 1204.3C1881.24 1203.43 1892.94 1202.56 1916.34 1200.83C1938.44 1212.1 1949.71 1217.3 1972.24 1227.26C1993.48 1224.23 2004.31 1222.5 2025.98 1218.6C2048.94 1227.7 2060.64 1232.03 2083.61 1239.83C2104.84 1234.63 2115.68 1232.03 2137.34 1225.96C2160.74 1232.9 2172.88 1235.93 2196.28 1241.56C2217.51 1234.2 2228.34 1230.3 2249.58 1222.5C2273.84 1226.83 2285.54 1229 2309.81 1232.46C2331.04 1222.93 2341.44 1218.16 2362.68 1208.2C2387.38 1210.36 2399.51 1211.23 2424.21 1212.53C2445.01 1201.26 2455.41 1195.2 2476.21 1183.06C2500.91 1182.63 2513.48 1182.2 2538.18 1180.9C2558.54 1167.46 2568.51 1160.53 2588.44 1146.23C2616.18 1142.76 2630.04 1140.6 2657.34 1135.83C2656.48 1145.8 2656.48 1151 2655.61 1160.96C2632.64 1164.86 2621.38 1166.6 2598.41 1169.63C2578.04 1184.36 2567.64 1191.3 2547.28 1205.16C2522.14 1206.46 2509.58 1206.9 2484.44 1207.33C2463.64 1219.9 2452.81 1225.96 2432.01 1237.23C2407.31 1235.93 2394.74 1235.5 2370.04 1233.33C2348.81 1243.73 2337.98 1248.5 2316.74 1258.03C2292.04 1254.56 2279.91 1252.4 2255.64 1248.06C2233.98 1256.3 2223.14 1260.2 2201.48 1267.56C2177.64 1261.93 2165.51 1258.46 2141.68 1251.96C2120.01 1258.03 2109.18 1260.63 2087.51 1265.83C2064.11 1257.6 2052.41 1253.7 2029.01 1244.6C2007.34 1248.5 1996.51 1250.23 1974.84 1253.26C1951.88 1242.86 1940.61 1237.66 1918.51 1226.4C1899.01 1228.13 1889.48 1228.56 1869.98 1229.43C1865.21 1219.46 1862.61 1214.26 1857.84 1204.3Z" fill="#FFFF8D"/>
<path d="M1851.78 1310.9C1874.74 1309.16 1886.44 1308.3 1909.84 1305.7C1932.38 1316.1 1943.64 1321.3 1966.61 1330.83C1987.84 1327.36 1998.24 1325.2 2019.48 1320.86C2042.88 1329.1 2054.58 1333.43 2077.98 1340.8C2099.21 1335.16 2109.61 1332.13 2130.41 1325.63C2154.24 1331.7 2166.38 1334.73 2190.21 1339.93C2211.01 1332.13 2221.41 1328.23 2242.64 1319.56C2266.91 1323.46 2279.04 1325.2 2303.74 1328.23C2324.54 1318.26 2334.51 1313.5 2355.31 1303.1C2380.01 1304.83 2392.58 1305.26 2417.28 1306.13C2437.64 1294.43 2447.61 1288.36 2467.98 1275.8C2493.11 1274.93 2505.24 1274.5 2530.38 1272.76C2549.88 1258.9 2559.84 1251.96 2579.34 1237.66C2607.08 1233.76 2620.94 1231.6 2648.68 1226.4C2648.24 1236.36 2648.24 1241.13 2647.81 1251.1C2624.84 1255.43 2613.58 1257.16 2590.61 1260.63C2570.68 1275.36 2560.71 1282.73 2540.78 1296.6C2515.64 1298.76 2502.64 1299.2 2477.51 1300.06C2457.14 1312.63 2446.74 1319.13 2426.38 1330.83C2401.24 1330.4 2388.68 1329.96 2363.54 1328.23C2342.74 1339.06 2332.34 1343.83 2311.54 1353.8C2286.84 1350.76 2274.28 1349.03 2249.58 1345.13C2228.34 1353.8 2217.94 1357.7 2196.71 1365.5C2172.44 1360.3 2160.31 1357.26 2136.04 1351.2C2114.81 1357.7 2103.98 1360.73 2082.74 1366.36C2058.91 1359 2047.21 1355.1 2023.38 1346.43C2002.14 1350.76 1991.31 1352.93 1970.08 1356.4C1947.11 1346.86 1935.41 1341.66 1912.44 1331.26C1893.38 1333.43 1883.84 1334.3 1864.78 1335.6C1859.58 1326.06 1856.98 1320.86 1851.78 1310.9Z" fill="#FFFF8D"/>
<path d="M2025.54 947.765C2025.54 947.765 2048.94 1034 2229.64 1055.67C2410.78 1076.9 2412.51 962.932 2372.64 898.799C2332.78 834.665 2057.61 850.265 2028.14 881.032C1998.68 911.799 2025.54 947.765 2025.54 947.765Z" fill="white"/>
</g>
<path d="M1866.08 1466.03L1846.58 1305.27" stroke="#544D4D" stroke-width="13.4786" stroke-miterlimit="10" stroke-linecap="round" stroke-linejoin="round"/>
<path d="M2622.67 1250.67C2622.67 1250.67 2609.67 1282.3 2613.57 1313.93C2617.47 1345.57 2628.74 1391.93 2612.71 1466.03" stroke="#544D4D" stroke-width="13.4786" stroke-miterlimit="10" stroke-linecap="round" stroke-linejoin="round"/>
<path d="M1966.18 903.566C1974.41 900.966 1988.71 903.566 1993.04 910.933C2009.94 938.666 2050.68 1019.7 2067.58 1180.47C2081.01 1306.13 2060.64 1532.33 2060.64 1532.33L1640.31 1512.4C1640.31 1512.4 1652.88 1298.77 1689.71 1155.33C1725.68 1016.23 1820.14 953.833 1966.18 903.566Z" fill="#755B7A"/>
<path d="M2402.11 930C2402.11 930 2536.01 1181.77 2497.01 1518.03H2786.48C2786.48 1518.03 2784.74 1289.67 2719.74 1144.93C2654.74 1000.2 2427.24 919.167 2427.24 919.167C2427.24 919.167 2412.94 926.1 2402.11 930Z" fill="#755B7A"/>
<path d="M2402.11 930.001L2391.71 926.967C2391.71 926.967 2406.87 919.601 2413.37 915.267L2417.28 913.101C2417.28 913.101 2438.08 922.634 2445.44 926.101C2452.81 929.567 2419.87 945.601 2419.87 945.601C2419.87 945.601 2403.41 930.434 2402.11 930.001Z" fill="#7E5D6D"/>
<path d="M2062.81 1140.17C2062.81 1140.17 2048.08 1098.13 2014.71 1060.87C1983.94 1026.2 1927.61 972.467 1923.71 960.333C1916.34 935.633 1962.28 842.467 2034.21 809.967C2034.21 810.4 2034.21 810.833 2034.21 811.267C2034.21 811.7 2034.21 812.134 2034.21 813C2034.21 813.867 2034.21 814.733 2034.64 815.6C2034.64 816.9 2035.08 818.2 2035.08 819.5C2035.08 820.367 2035.08 820.8 2035.51 821.667C2038.54 847.667 2041.14 876.7 2043.31 907.467V907.9C2043.31 907.9 2023.38 914.4 2037.68 1013.63C2041.58 1037.47 2056.31 1079.93 2062.81 1140.17Z" fill="#4B3C4F"/>
<path d="M2477.94 1153.6C2477.94 1153.6 2448.91 1040.93 2434.61 1004.97C2420.31 969.434 2393.44 929.134 2392.14 926.967C2409.04 919.167 2424.21 909.2 2437.64 897.5C2451.08 885.8 2461.91 874.1 2471.01 862.4C2481.84 874.534 2546.41 947.334 2553.34 987.2C2561.14 1031.4 2504.81 1050.47 2477.94 1153.6Z" fill="#4B3C4F"/>
<path d="M2334.8 526.548C2344.22 527.848 2351.49 517.882 2348.07 508.348C2346.36 503.148 2343.36 498.382 2338.65 495.348C2324.1 486.248 2269.76 485.382 2241.09 506.182C2215.84 525.248 2292.01 520.482 2334.8 526.548Z" fill="#423232"/>
<path d="M2453.33 531.316C2445.63 531.316 2440.92 521.349 2444.77 513.116C2446.91 508.783 2449.91 504.883 2454.19 502.716C2467.45 496.216 2502.97 500.116 2518.8 522.216C2532.93 541.716 2488.85 530.883 2453.33 531.316Z" fill="#423232"/>
<path d="M2319.82 581.148C2292.44 567.281 2249.22 577.681 2249.22 577.681" stroke="#423232" stroke-width="13.4786" stroke-miterlimit="10" stroke-linecap="round" stroke-linejoin="round"/>
<path d="M2488.85 589.815C2488.85 589.815 2477.73 577.682 2436.65 587.215" stroke="#423232" stroke-width="13.4786" stroke-miterlimit="10" stroke-linecap="round" stroke-linejoin="round"/>
<path d="M2393.33 777.193C2393.78 792.019 2371.77 829.759 2329.08 812.237C2288.2 795.613 2276.07 717.438 2334.47 754.728C2365.03 774.048 2383.45 777.193 2393.33 777.193Z" fill="white"/>
<path d="M2401.87 775.396C2401.87 775.396 2383 785.729 2334.47 754.728C2276.52 717.438 2288.2 795.613 2329.08 812.237C2371.77 829.759 2393.78 791.57 2393.33 777.193" stroke="#423232" stroke-width="13.4786" stroke-miterlimit="10" stroke-linecap="round" stroke-linejoin="round"/>
<path d="M2294.94 765.962C2294.94 765.962 2325.49 786.18 2334.47 784.383C2343.91 783.035 2342.56 796.064 2385.24 797.412" stroke="#423232" stroke-width="13.4786" stroke-miterlimit="10" stroke-linecap="round" stroke-linejoin="round"/>
<path opacity="0.6" d="M2336.93 670.913C2336.93 670.913 2296.2 696.479 2250.27 696.046C2204.33 695.613 2198.7 659.646 2198.27 640.146C2198.27 640.146 2204.33 668.313 2232.07 678.713C2259.37 689.113 2336.93 670.913 2336.93 670.913Z" fill="#B7AEA9"/>
<path opacity="0.6" d="M2467.8 666.145C2467.8 666.145 2477.77 678.278 2491.2 686.945C2500.3 693.011 2512.43 686.511 2512.43 675.678C2512.87 675.678 2487.3 676.978 2467.8 666.145Z" fill="#B7AEA9"/>
<path opacity="0.43" d="M2352.97 548.279L2225.57 675.679C2235.53 681.746 2247.67 684.779 2259.8 683.046L2320.47 675.246C2338.67 672.646 2355.57 663.546 2368.57 648.379C2373.77 642.746 2376.8 634.946 2377.23 626.713L2379.4 583.813C2380.27 565.179 2368.57 549.579 2352.97 548.279Z" fill="#FE9DAB"/>
<path opacity="0.3" d="M2352.97 548.278L2231.2 537.012C2210.83 535.278 2193.5 553.912 2193.5 577.312V614.145C2193.5 641.012 2206.5 663.978 2225.57 675.678L2352.97 548.278Z" fill="#FE9DAB"/>
<path opacity="0.3" d="M2530.63 543.944L2454.37 553.911C2444.4 555.211 2437.03 569.511 2437.9 585.977L2439.2 624.544C2439.63 631.911 2441.37 638.844 2444.4 644.044C2449.6 652.711 2456.1 659.211 2463.03 663.544L2553.6 572.977C2551.87 555.644 2541.9 542.644 2530.63 543.944Z" fill="#FE9DAB"/>
<path opacity="0.43" d="M2463.47 663.979C2467.37 666.146 2470.83 667.879 2475.17 668.746L2512.87 676.112C2534.97 680.446 2554.47 651.412 2554.47 613.712V580.779C2554.47 578.179 2554.47 576.012 2554.03 573.846L2463.47 663.979Z" fill="#FE9DAB"/>
<path d="M2352.97 548.278L2231.2 537.012C2210.83 535.278 2193.5 553.912 2193.5 577.312V614.145C2193.5 655.745 2224.7 687.812 2259.8 683.045L2320.47 675.245C2338.67 672.645 2355.57 663.545 2368.57 648.378C2373.77 642.745 2376.8 634.945 2377.23 626.712L2379.4 583.812C2380.27 565.178 2368.57 549.578 2352.97 548.278Z" stroke="white" stroke-width="14.5456" stroke-miterlimit="10" stroke-linecap="round" stroke-linejoin="round"/>
<path d="M2454.8 554.345L2531.07 544.378C2543.63 542.645 2554.47 559.545 2554.47 580.778V613.712C2554.47 650.978 2534.97 680.012 2512.87 676.112L2475.17 668.745C2463.9 666.578 2453.07 657.912 2445.27 644.478C2442.23 639.278 2440.07 632.345 2440.07 624.978L2438.77 586.412C2437.47 569.945 2444.83 555.645 2454.8 554.345Z" stroke="white" stroke-width="14.5456" stroke-miterlimit="10" stroke-linecap="round" stroke-linejoin="round"/>
<path d="M2193.5 581.646L2093.4 579.479" stroke="white" stroke-width="13.4786" stroke-miterlimit="10" stroke-linecap="round" stroke-linejoin="round"/>
<path d="M2379.4 584.678C2379.4 584.678 2431.83 574.278 2438.33 584.678" stroke="white" stroke-width="14.5456" stroke-miterlimit="10" stroke-linecap="round" stroke-linejoin="round"/>
</g>
<path d="M650 2424C290.71 2424 0 2132.86 0 1774C0 1414.71 291.141 1124 650 1124C1009.29 1124 1300 1415.14 1300 1774C1300.43 2133.29 1009.29 2424 650 2424Z" fill="#B5E2DC"/>
<mask id="mask4_411_1170" style="mask-type:alpha" maskUnits="userSpaceOnUse" x="0" y="1124" width="1301" height="1300">
<path d="M650 2424C290.71 2424 0 2132.86 0 1774C0 1414.71 291.141 1124 650 1124C1009.29 1124 1300 1415.14 1300 1774C1300.43 2133.29 1009.29 2424 650 2424Z" fill="#F7C0B5"/>
</mask>
<g mask="url(#mask4_411_1170)">
<path d="M1014.87 2321.33C1011.83 2323.5 1008.37 2325.66 1005.33 2327.83C1001.87 2330 998.832 2332.17 995.366 2333.9C992.332 2335.63 989.732 2337.37 986.699 2339.1C986.266 2339.53 985.832 2339.53 985.399 2339.97C975.432 2346.03 965.032 2351.67 954.632 2356.87C951.599 2358.6 948.132 2360.33 945.099 2361.63C945.099 2361.63 944.666 2362.07 944.232 2362.07C940.766 2363.8 937.299 2365.53 933.832 2367.27C926.899 2370.73 919.532 2373.76 912.599 2376.8C909.132 2378.53 905.232 2379.83 901.766 2381.13C898.299 2382.43 894.399 2384.16 890.932 2385.46C887.466 2386.76 883.566 2388.5 880.099 2389.8C880.099 2389.8 880.099 2389.8 879.666 2389.8C876.199 2391.1 872.299 2392.4 868.832 2393.7C861.032 2396.3 852.799 2398.9 844.999 2401.5C842.399 2402.36 839.366 2403.23 836.766 2404.1C828.532 2406.7 820.299 2408.86 812.066 2410.6C809.032 2411.46 805.999 2411.9 802.532 2412.76C794.732 2414.5 786.499 2416.23 778.699 2417.96C776.966 2418.4 775.666 2418.4 773.932 2418.83C771.332 2419.26 768.299 2419.7 765.699 2420.13C761.799 2420.56 758.332 2421.43 754.432 2421.87C752.699 2422.3 750.966 2422.3 749.232 2422.73C747.066 2423.17 744.466 2423.6 741.866 2423.6C734.932 2424.46 727.566 2425.33 720.632 2426.2C718.466 2426.63 715.866 2426.63 713.699 2427.07H713.266C710.232 2427.5 707.199 2427.5 704.166 2427.93C701.132 2428.36 698.099 2428.37 695.066 2428.37C693.332 2428.37 691.166 2428.8 689.432 2428.8C685.966 2428.8 682.932 2429.23 679.899 2429.23C675.566 2429.23 671.666 2429.66 667.332 2429.66C662.999 2429.66 659.099 2429.66 654.766 2429.66C651.732 2429.66 648.699 2429.66 645.666 2429.66C463.232 2427.06 298.566 2349.5 181.566 2226.43C181.566 2226.43 181.566 2226 181.132 2226C194.566 2199.57 244.399 2151.9 296.399 2112.47C362.266 2062.63 455.432 2031.87 455.432 2031.87C455.432 2031.87 516.532 2021.9 743.166 2069.13C916.066 2105.53 989.732 2253.3 1014.87 2321.33Z" fill="#AD827B"/>
<path d="M791.266 2189.16C782.166 2233.8 723.232 2260.23 623.999 2220.36C502.232 2170.96 455.432 2031.86 455.432 2031.86C448.932 1932.2 433.766 1846.83 433.766 1846.83C574.599 1834.7 740.999 1999.36 740.999 1999.36L760.066 2080.83C761.799 2087.76 765.266 2093.83 770.466 2098.16C779.566 2113.76 797.332 2160.56 791.266 2189.16Z" fill="#AD827B"/>
<path d="M770.466 2098.6C687.699 2094.26 626.599 2082.13 561.166 1964.7C616.632 2013.66 682.066 2032.3 750.966 2040.96L760.066 2080.83C761.799 2088.2 765.266 2094.26 770.466 2098.6Z" fill="#8E5650"/>
<path d="M941.632 1576.43C949.432 1612.83 953.332 1642.3 932.099 1739.36C910.866 1836.43 951.599 1933.5 849.332 2022.33C780.432 2082.13 659.966 2093.4 563.766 2027.96C531.266 2005.86 501.366 1975.1 477.099 1934.8C458.032 1903.16 435.932 1873.26 411.232 1845.96C376.999 1808.7 335.832 1733.73 356.199 1601.13C389.132 1385.33 602.766 1360.63 728.866 1384.46C854.966 1408.3 920.399 1480.23 941.632 1576.43Z" fill="#AD827B"/>
<path d="M526.932 1745.87C526.932 1745.87 513.499 1680.87 450.232 1688.67C395.632 1695.6 376.566 1826.47 500.499 1862.87" fill="#AD827B"/>
<path d="M496.599 1803.5C496.599 1803.5 480.999 1793.53 482.732 1776.2C485.332 1755.83 482.732 1743.27 473.199 1739.37C449.366 1729.4 444.599 1757.13 445.466 1760.6" stroke="#423232" stroke-width="13.4786" stroke-miterlimit="10" stroke-linecap="round" stroke-linejoin="round"/>
<path d="M827.232 1845.53C827.232 1845.53 843.699 1846.4 859.299 1827.77C867.966 1817.37 875.332 1804.37 870.566 1800.47C865.799 1796.13 787.366 1808.27 782.166 1818.67C776.966 1829.07 807.299 1845.53 827.232 1845.53Z" fill="#8E605C"/>
<path d="M840.232 1699.93C840.232 1699.93 841.099 1741.1 867.532 1787.03C879.232 1807.4 861.466 1840.76 822.899 1846.4" stroke="#423232" stroke-width="13.4786" stroke-miterlimit="10" stroke-linecap="round" stroke-linejoin="round"/>
<path d="M496.385 2071.75C496.385 2071.75 487.718 2018.02 472.985 2021.05C404.518 2036.65 204.752 2094.72 134.985 2245.52C69.1184 2388.95 63.0517 2590.02 63.0517 2590.02H1158.95C1158.95 2590.02 1139.02 2284.52 1027.22 2190.92C960.918 2135.02 901.118 2100.79 852.152 2079.99C787.152 2052.25 721.718 2110.32 703.085 2109.02C669.718 2107.29 496.385 2071.75 496.385 2071.75Z" fill="#544D4D"/>
<path d="M277.552 2590.02L258.052 2429.25" stroke="white" stroke-width="13.4786" stroke-miterlimit="10" stroke-linecap="round" stroke-linejoin="round"/>
<path d="M1034.15 2374.65C1034.15 2374.65 1021.15 2406.29 1025.05 2437.92C1028.95 2469.55 1040.22 2515.92 1024.19 2590.02" stroke="white" stroke-width="13.4786" stroke-miterlimit="10" stroke-linecap="round" stroke-linejoin="round"/>
<path d="M446.552 1977.29C446.552 1977.29 415.352 1988.55 409.718 1994.62C404.085 2000.69 401.485 2004.59 401.485 2004.59C401.485 2004.59 385.885 2021.92 377.218 2063.95C373.318 2081.72 382.418 2110.75 375.485 2133.72C355.552 2197.42 450.018 2295.35 606.018 2352.99C724.318 2396.75 854.752 2356.89 872.952 2274.55C890.285 2195.25 879.885 2159.29 871.652 2133.72C855.185 2084.32 849.985 2070.45 827.885 2051.39C814.018 2039.25 804.485 2064.39 752.485 2078.69C736.452 2083.02 716.952 2086.49 691.818 2087.35C542.318 2092.99 479.052 2008.05 456.518 1983.79C450.885 1979.02 448.285 1976.42 446.552 1977.29Z" fill="white"/>
<path d="M751.185 2078.26C735.152 2082.59 715.652 2086.06 690.518 2086.92C541.018 2092.56 477.752 2007.62 455.218 1983.36" stroke="#CCCCCC" stroke-width="13.4786" stroke-miterlimit="10" stroke-linecap="round" stroke-linejoin="round"/>
<path d="M830.485 2035.79C869.918 2068.72 938.385 2154.96 921.918 2347.79C913.685 2443.12 960.052 2482.56 949.652 2497.72C947.918 2500.32 945.752 2501.62 944.018 2502.06C936.652 2503.79 929.718 2507.26 926.252 2514.19C924.952 2517.22 922.785 2519.39 919.752 2521.12C917.152 2522.86 914.118 2522.86 911.518 2522.42C902.418 2520.26 892.452 2525.46 886.818 2533.26C884.652 2536.29 882.052 2538.46 878.152 2539.32C875.552 2540.19 872.952 2539.76 871.218 2539.32C863.852 2537.16 855.618 2539.32 849.118 2544.52C847.385 2545.82 845.652 2546.69 843.485 2546.69C839.585 2546.69 836.552 2544.96 833.952 2542.36C827.885 2536.72 819.218 2534.56 810.552 2537.59C809.685 2538.02 809.252 2538.02 808.385 2538.02C802.318 2538.89 797.552 2534.12 794.085 2525.89C790.618 2518.09 782.385 2514.62 773.718 2515.49C771.985 2515.49 770.252 2515.49 768.085 2515.06C751.185 2511.16 729.518 2487.76 729.085 2459.16C728.652 2430.99 735.152 2382.02 745.985 2359.06C779.352 2288.42 791.485 2237.72 793.218 2199.59C796.685 2129.82 752.485 2067.42 756.818 2066.12C801.018 2057.02 830.485 2035.79 830.485 2035.79Z" fill="white"/>
<path d="M745.552 2359.05C778.918 2288.42 791.052 2237.72 792.785 2199.59C795.385 2145.85 769.385 2096.02 759.852 2075.65" stroke="#CCCCCC" stroke-width="13.4786" stroke-miterlimit="10" stroke-linecap="round" stroke-linejoin="round"/>
<path d="M728.652 2459.15C728.218 2430.99 734.718 2382.02 745.552 2359.05C778.918 2288.42 791.052 2237.72 792.785 2199.59" stroke="#CCCCCC" stroke-width="13.4786" stroke-miterlimit="10" stroke-linecap="round" stroke-linejoin="round"/>
<path d="M767.219 2307.92C767.219 2307.92 635.485 2320.92 548.819 2255.49" stroke="#CCCCCC" stroke-width="13.4786" stroke-miterlimit="10" stroke-linecap="round" stroke-linejoin="round"/>
<path d="M802.752 2079.55C814.886 2097.32 828.752 2123.32 832.219 2155.39" stroke="#CCCCCC" stroke-width="13.4786" stroke-miterlimit="10" stroke-linecap="round" stroke-linejoin="round"/>
<path d="M857.786 2539.32C857.786 2539.32 835.686 2492.52 857.786 2390.69C881.186 2282.35 870.353 2229.05 870.353 2229.05" stroke="#CCCCCC" stroke-width="13.4786" stroke-miterlimit="10" stroke-linecap="round" stroke-linejoin="round"/>
<path d="M376.352 2085.62C376.352 2085.62 405.385 2145.42 440.485 2173.15" stroke="#CCCCCC" stroke-width="13.4786" stroke-miterlimit="10" stroke-linecap="round" stroke-linejoin="round"/>
<path d="M789.319 2229.05C789.319 2229.05 706.986 2234.69 648.919 2212.15" stroke="#CCCCCC" stroke-width="13.4786" stroke-miterlimit="10" stroke-linecap="round" stroke-linejoin="round"/>
<path d="M743.042 1650.55C752.576 1651.85 759.942 1641.88 756.476 1632.35C754.742 1627.15 751.709 1622.38 746.942 1619.35C732.209 1610.25 677.176 1609.38 648.142 1630.18C622.576 1649.25 699.709 1644.48 743.042 1650.55Z" fill="#423232"/>
<path d="M863.075 1655.32C855.275 1655.32 850.508 1645.35 854.408 1637.12C856.575 1632.78 859.608 1628.88 863.941 1626.72C877.374 1620.22 913.341 1624.12 929.375 1646.22C943.675 1665.72 899.041 1654.88 863.075 1655.32Z" fill="#423232"/>
<path d="M727.876 1705.15C694.076 1719.45 656.376 1701.68 656.376 1701.68" stroke="#423232" stroke-width="13.4786" stroke-miterlimit="10" stroke-linecap="round" stroke-linejoin="round"/>
<path d="M899.043 1713.82C899.043 1713.82 875.643 1728.12 846.176 1711.22" stroke="#423232" stroke-width="13.4786" stroke-miterlimit="10" stroke-linecap="round" stroke-linejoin="round"/>
<path d="M804.157 1896.85C804.607 1904.03 799.215 1916.61 789.331 1925.6C738.562 1894.6 715.648 1910.77 715.648 1910.77C697.676 1883.37 701.72 1846.08 745.301 1874.38C775.852 1893.7 794.273 1896.85 804.157 1896.85Z" fill="#423232"/>
<path d="M789.331 1925.6C778.548 1935.04 762.374 1940.88 740.359 1931.89C730.026 1927.85 721.938 1919.76 715.648 1910.77C715.648 1910.77 738.562 1894.6 789.331 1925.6Z" fill="#FE9DAB"/>
<path d="M812.694 1895.05C812.694 1895.05 793.824 1905.38 745.301 1874.38C687.343 1837.09 699.025 1915.27 739.91 1931.89C782.592 1949.41 804.607 1911.22 804.158 1896.85" stroke="#423232" stroke-width="13.4786" stroke-miterlimit="10" stroke-linecap="round" stroke-linejoin="round"/>
<path d="M715.648 1910.77C715.648 1910.77 738.562 1894.6 789.331 1925.6" stroke="#423232" stroke-width="13.4786" stroke-miterlimit="10" stroke-linecap="round" stroke-linejoin="round"/>
<path d="M1007.78 1748.09C987.418 1729.46 981.785 1702.16 980.051 1683.96C993.051 1692.63 1009.95 1666.19 1009.08 1634.99C1007.78 1588.63 995.651 1554.39 981.351 1530.56C991.318 1517.99 998.685 1503.26 1002.58 1486.79C1020.35 1414.86 961.851 1359.83 876.485 1339.03C824.051 1326.03 727.851 1332.53 614.751 1330.79C595.251 1330.36 574.885 1331.23 554.951 1333.39C530.685 1335.99 506.851 1341.19 484.751 1350.29C448.785 1363.73 415.851 1384.96 390.718 1415.73C346.518 1470.33 333.951 1532.73 331.785 1581.26C329.618 1638.89 315.751 1695.66 288.451 1746.79C258.985 1801.83 240.785 1860.33 269.818 1910.59C270.685 1911.89 271.551 1913.19 272.418 1914.93C258.551 1983.39 335.685 1977.33 350.851 1907.99C347.818 1920.99 345.651 1932.26 344.351 1940.06C333.951 2008.09 383.351 2016.76 408.051 1969.53C410.651 1964.76 417.151 1945.26 424.085 1920.56C424.085 1924.89 424.518 1929.23 424.951 1933.13C425.818 2028.03 493.418 2036.26 489.518 1972.13C487.785 1943.53 492.551 1903.66 499.918 1860.33C376.851 1823.49 395.918 1693.49 450.951 1686.56C514.218 1678.33 527.651 1743.76 527.651 1743.76C532.418 1764.13 539.351 1788.39 549.751 1800.09C568.385 1820.46 600.451 1806.16 579.651 1742.03C575.318 1728.59 571.418 1713.43 568.818 1697.39C585.285 1701.73 599.585 1692.63 592.651 1674.43C586.151 1657.96 582.685 1642.79 581.818 1628.49C580.518 1606.39 586.151 1586.46 595.685 1569.99C605.651 1609.43 647.251 1597.29 649.851 1568.69C650.718 1559.16 653.751 1547.89 658.085 1535.33C668.485 1548.76 682.785 1561.33 700.551 1570.43C733.485 1586.89 756.885 1579.09 762.085 1562.19C783.318 1569.56 802.385 1575.19 817.118 1578.66C861.318 1589.49 905.085 1583.86 939.318 1565.66C941.051 1569.56 941.918 1573.03 942.351 1574.33C942.785 1576.49 943.218 1578.66 943.651 1580.83C947.551 1599.46 949.718 1617.66 947.985 1644.96C947.985 1646.26 947.985 1647.13 947.551 1648.43C947.551 1649.29 947.551 1650.16 947.118 1651.03C947.118 1653.19 946.685 1654.93 946.685 1657.09C946.685 1658.39 946.251 1659.26 946.251 1660.56C946.251 1662.29 945.818 1664.46 945.385 1666.63C944.951 1668.36 944.951 1670.09 944.518 1671.83C944.518 1673.13 944.085 1674.86 944.085 1676.16C943.651 1678.76 943.218 1681.36 942.785 1684.39C942.785 1684.83 942.785 1685.69 942.351 1686.13C941.918 1689.59 941.051 1693.06 940.618 1696.96C938.451 1709.09 935.851 1722.09 932.818 1737.26C914.618 1821.33 942.785 1906.26 883.418 1985.13C880.818 2008.53 901.185 2037.99 926.318 2007.23C945.818 1983.39 936.718 1903.66 935.418 1887.63C937.151 1904.53 964.018 1958.26 989.151 1950.46C1003.02 1946.13 1009.08 1938.76 1006.92 1913.19C1004.32 1877.23 976.151 1841.69 972.251 1789.26C998.251 1811.36 1035.08 1772.79 1007.78 1748.09Z" fill="#423232"/>
<path d="M477.159 1760.13C477.159 1760.13 442.492 1754.93 445.092 1803.46C446.392 1828.16 446.392 1841.59 445.959 1848.53C445.525 1853.29 448.559 1857.63 452.892 1859.36C458.092 1861.53 463.726 1859.36 466.326 1854.16C470.226 1847.23 474.559 1837.69 474.559 1829.89C474.559 1816.89 488.425 1805.19 488.425 1805.19C488.425 1805.19 475.859 1794.36 477.159 1760.13Z" fill="white"/>
<path d="M582.026 2595.59C578.559 2591.69 442.492 2358.99 462.859 2271.46C476.726 2211.23 458.526 2141.89 442.492 2080.79C435.992 2055.66 429.926 2032.26 426.459 2011.46C420.392 1975.49 424.726 1941.26 439.459 1909.63C455.492 1874.09 452.892 1843.33 452.892 1842.89L461.559 1842.03C461.559 1843.33 464.159 1875.83 447.259 1913.09C433.392 1942.99 429.492 1975.93 435.126 2010.16C438.592 2030.53 444.659 2053.93 451.159 2079.06C467.626 2141.03 485.826 2211.66 471.526 2274.06C452.459 2357.26 588.092 2589.96 588.959 2590.83L582.026 2595.59Z" fill="white"/>
<path d="M446.393 1828.59C446.826 1838.12 446.393 1844.62 446.393 1848.52C445.959 1853.29 448.993 1857.62 453.326 1859.36C458.526 1861.52 464.159 1859.36 466.759 1854.16C470.659 1847.22 474.993 1837.69 474.993 1829.89C474.993 1829.46 474.993 1828.59 474.993 1828.16C465.893 1831.62 455.493 1834.22 446.393 1828.59Z" fill="#E5E5E5"/>
<path d="M854.159 2116.76C851.125 2136.69 850.692 2168.33 849.825 2205.16C848.525 2276.23 806.492 2553.13 786.125 2596.89L778.325 2593.43C797.825 2550.96 839.859 2275.36 841.159 2205.16C842.025 2168.33 842.459 2136.26 845.492 2115.46C851.992 2071.69 847.225 2038.76 844.625 2024.89C845.925 2023.59 847.225 2022.73 848.525 2021.43C849.825 2020.56 850.692 2019.26 851.992 2018.39C854.592 2029.66 861.959 2065.63 854.159 2116.76Z" fill="white"/>
</g>
</svg>
